<svg width="38" height="38" viewBox="0 0 38 38" fill="none" xmlns="http://www.w3.org/2000/svg">
<path fill-rule="evenodd" clip-rule="evenodd" d="M27.0833 0C29.846 0 32.4955 1.09747 34.449 3.05097C36.4025 5.00447 37.5 7.65399 37.5 10.4167V27.0833C37.5 29.846 36.4025 32.4955 34.449 34.449C32.4955 36.4025 29.846 37.5 27.0833 37.5H10.4167C7.65399 37.5 5.00447 36.4025 3.05097 34.449C1.09747 32.4955 0 29.846 0 27.0833V10.4167C0 7.65399 1.09747 5.00447 3.05097 3.05097C5.00447 1.09747 7.65399 0 10.4167 0H27.0833ZM27.0833 4.16667H10.4167C8.75906 4.16667 7.16935 4.82515 5.99725 5.99725C4.82515 7.16935 4.16667 8.75906 4.16667 10.4167V27.0833C4.16667 28.7409 4.82515 30.3306 5.99725 31.5028C7.16935 32.6749 8.75906 33.3333 10.4167 33.3333H27.0833C28.7409 33.3333 30.3306 32.6749 31.5028 31.5028C32.6749 30.3306 33.3333 28.7409 33.3333 27.0833V10.4167C33.3333 8.75906 32.6749 7.16935 31.5028 5.99725C30.3306 4.82515 28.7409 4.16667 27.0833 4.16667ZM18.75 10.4167C20.9601 10.4167 23.0798 11.2946 24.6426 12.8574C26.2054 14.4202 27.0833 16.5399 27.0833 18.75C27.0833 20.9601 26.2054 23.0798 24.6426 24.6426C23.0798 26.2054 20.9601 27.0833 18.75 27.0833C16.5399 27.0833 14.4202 26.2054 12.8574 24.6426C11.2946 23.0798 10.4167 20.9601 10.4167 18.75C10.4167 16.5399 11.2946 14.4202 12.8574 12.8574C14.4202 11.2946 16.5399 10.4167 18.75 10.4167ZM18.75 14.5833C17.6449 14.5833 16.5851 15.0223 15.8037 15.8037C15.0223 16.5851 14.5833 17.6449 14.5833 18.75C14.5833 19.8551 15.0223 20.9149 15.8037 21.6963C16.5851 22.4777 17.6449 22.9167 18.75 22.9167C19.8551 22.9167 20.9149 22.4777 21.6963 21.6963C22.4777 20.9149 22.9167 19.8551 22.9167 18.75C22.9167 17.6449 22.4777 16.5851 21.6963 15.8037C20.9149 15.0223 19.8551 14.5833 18.75 14.5833ZM28.125 7.29167C28.6775 7.29167 29.2074 7.51116 29.5981 7.90186C29.9888 8.29256 30.2083 8.82246 30.2083 9.375C30.2083 9.92753 29.9888 10.4574 29.5981 10.8481C29.2074 11.2388 28.6775 11.4583 28.125 11.4583C27.5725 11.4583 27.0426 11.2388 26.6519 10.8481C26.2612 10.4574 26.0417 9.92753 26.0417 9.375C26.0417 8.82246 26.2612 8.29256 26.6519 7.90186C27.0426 7.51116 27.5725 7.29167 28.125 7.29167Z" fill="#5B2E0F"/>
</svg>
