<svg width="44" height="43" viewBox="0 0 44 43" fill="none" xmlns="http://www.w3.org/2000/svg">
<mask id="mask0_124_393" style="mask-type:luminance" maskUnits="userSpaceOnUse" x="0" y="0" width="44" height="43">
<path d="M7.10208 30.9552C3.33125 32.0865 1 33.649 1 35.375C1 38.8271 10.3271 41.625 21.8333 41.625C33.3396 41.625 42.6667 38.8271 42.6667 35.375C42.6667 33.649 40.3344 32.0865 36.5646 30.9552" stroke="white" stroke-width="2" stroke-linecap="round" stroke-linejoin="round"/>
<path d="M21.8337 33.2917C21.8337 33.2917 35.3753 24.4417 35.3753 14.2104C35.3753 6.91458 29.3128 1 21.8337 1C14.3545 1 8.29199 6.91458 8.29199 14.2104C8.29199 24.4417 21.8337 33.2917 21.8337 33.2917Z" fill="white" stroke="white" stroke-width="2" stroke-linejoin="round"/>
<path d="M21.8333 19.75C23.2147 19.75 24.5394 19.2013 25.5162 18.2246C26.4929 17.2478 27.0417 15.923 27.0417 14.5417C27.0417 13.1604 26.4929 11.8356 25.5162 10.8589C24.5394 9.88211 23.2147 9.33337 21.8333 9.33337C20.452 9.33337 19.1272 9.88211 18.1505 10.8589C17.1737 11.8356 16.625 13.1604 16.625 14.5417C16.625 15.923 17.1737 17.2478 18.1505 18.2246C19.1272 19.2013 20.452 19.75 21.8333 19.75Z" fill="black" stroke="black" stroke-width="2" stroke-linejoin="round"/>
</mask>
<g mask="url(#mask0_124_393)">
<path d="M-3.16699 -3.16663H46.833V46.8334H-3.16699V-3.16663Z" fill="#5B2E0F"/>
</g>
</svg>
